<svg width="188" height="34" viewBox="0 0 188 34" fill="none" xmlns="http://www.w3.org/2000/svg">
<rect x="0.5" y="0.5" width="57" height="33" rx="8.5" fill="#FAFAFA" stroke="#EFEFEF"/>
<path d="M25.241 23.2147H22.4399L24.1811 12.2374H26.9822L25.241 23.2147Z" fill="url(#paint0_linear_496_81425)"/>
<path d="M35.5369 12.5401C34.7041 12.2373 33.8714 12.0858 32.9629 12.0858C30.1618 12.0858 28.1935 13.5999 28.1935 15.7197C28.1935 17.3095 29.6319 18.1422 30.6918 18.6722C31.7516 19.2021 32.1302 19.5806 32.1302 20.0349C32.1302 20.7919 31.2217 21.0947 30.4646 21.0947C29.5562 21.0947 28.6477 20.9433 27.815 20.4891L27.4364 20.3377L27.0579 22.7603C28.0421 23.1388 29.102 23.3659 30.2375 23.3659C33.19 23.3659 35.1584 21.9275 35.1584 19.6563C35.1584 18.4451 34.4013 17.4609 32.8115 16.7039C31.8273 16.1739 31.2217 15.8711 31.2217 15.3412C31.146 14.8869 31.6759 14.357 32.7358 14.357C33.4928 14.357 34.1742 14.5084 34.8555 14.8112L35.0827 14.9626L35.5369 12.5401Z" fill="url(#paint1_linear_496_81425)"/>
<path d="M39.2464 19.3534C39.4735 18.7477 40.382 16.3252 40.382 16.3252C40.382 16.3252 40.6091 15.7195 40.7605 15.2653L40.9876 16.1738C40.9876 16.1738 41.5176 18.8235 41.669 19.3534H39.2464ZM42.8046 12.3128H40.6091C39.9278 12.2371 39.3221 12.6156 39.095 13.2213L34.8555 23.29H37.808L38.4137 21.6245H42.0475C42.1232 22.0031 42.3503 23.29 42.3503 23.29H45L42.8046 12.3128Z" fill="url(#paint2_linear_496_81425)"/>
<path d="M20.0174 12.3128L17.292 19.7319L16.9892 18.2178C16.3078 16.2495 14.8694 14.6597 13.0525 13.6755L15.6265 23.2901H18.6547L23.1213 12.3128H20.0174Z" fill="url(#paint3_linear_496_81425)"/>
<path d="M14.718 12.3128H10.1757L10.1 12.5399C13.6581 13.4484 16.005 15.6438 16.9891 18.2935L16.005 13.2213C15.8536 12.6156 15.3236 12.2371 14.718 12.3128Z" fill="url(#paint4_linear_496_81425)"/>
<rect x="65.5" y="0.5" width="57" height="33" rx="8.5" fill="#FAFAFA" stroke="#EFEFEF"/>
<path d="M93.6 22.8C93.7 22.9 93.7 22.9 93.8 23C92.6 23.8 91.1 24.3 89.6 24.3C85.4 24.3 82 20.9 82 16.7C82 12.5 85.4 9 89.6 9C91.1 9 92.6 9.4 93.8 10.3C93.7 10.4 93.7 10.4 93.6 10.5C91.8 12 90.8 14.2 90.8 16.6C90.8 19 91.8 21.2 93.6 22.8Z" fill="#EB001B"/>
<path d="M99.005 9C97.505 9 96.005 9.4 94.805 10.3C94.905 10.4 94.905 10.4 95.005 10.5C96.805 12 97.805 14.2 97.805 16.6C97.805 19 96.805 21.2 95.005 22.8C94.905 22.9 94.905 22.9 94.805 23C96.005 23.8 97.505 24.3 99.005 24.3C103.205 24.3 106.605 20.9 106.605 16.7C106.605 12.4 103.205 9 99.005 9Z" fill="#F79E1B"/>
<path d="M94.307 10.63C94.207 10.73 94.107 10.83 94.007 10.83C92.407 12.33 91.407 14.43 91.407 16.63C91.407 18.83 92.407 20.93 94.007 22.33C94.107 22.43 94.207 22.53 94.307 22.53C94.407 22.43 94.507 22.33 94.607 22.33C96.307 20.93 97.207 18.83 97.207 16.63C97.207 14.43 96.207 12.33 94.607 10.93C94.507 10.83 94.407 10.73 94.307 10.63Z" fill="#FF5F00"/>
<rect x="130.5" y="0.5" width="57" height="33" rx="8.5" fill="#3498D8" stroke="#EFEFEF"/>
<path d="M140.4 11.1L135 23H141.5L142.3 21.1H144.1L144.9 23H152V21.5L152.6 23H156.2L156.8 21.5V23H171.6L173.4 21.1L175.1 23H182.7L177.3 17L182.7 11H175.2L173.5 12.7999L171.9 11H155.8L154.4 14.1L153 11H146.5V12.4L145.8 11C145.9 11.1 140.4 11.1 140.4 11.1ZM141.6 12.7999H144.7L148.3 20.9V12.7999H151.7L154.5 18.6L157 12.7999H160.4V21.4H158.3V14.7L155.3 21.4H153.5L150.5 14.7V21.4H146.2L145.4 19.5H141L140.2 21.4H137.9L141.6 12.7999ZM162.4 12.7999H170.9L173.5 15.6L176.2 12.7999H178.8L174.9 17.1L178.8 21.2999H176.1L173.5 18.5L170.8 21.2999H162.5C162.4 21.3999 162.4 12.7999 162.4 12.7999ZM143.2 14.2999L141.8 17.7H144.7L143.2 14.2999ZM164.5 14.6V16.2H169.1V17.9H164.5V19.6H169.7L172.1 17.1L169.8 14.6H164.5Z" fill="#FAFAFA"/>
<defs>
<linearGradient id="paint0_linear_496_81425" x1="22.557" y1="23.2147" x2="27.4377" y2="23.2147" gradientUnits="userSpaceOnUse">
<stop stop-color="#101860"/>
<stop offset="1" stop-color="#002899"/>
</linearGradient>
<linearGradient id="paint1_linear_496_81425" x1="27.2766" y1="23.3659" x2="36.3872" y2="23.3659" gradientUnits="userSpaceOnUse">
<stop stop-color="#101860"/>
<stop offset="1" stop-color="#002899"/>
</linearGradient>
<linearGradient id="paint2_linear_496_81425" x1="35.1171" y1="23.29" x2="46.0173" y2="23.29" gradientUnits="userSpaceOnUse">
<stop stop-color="#101860"/>
<stop offset="1" stop-color="#002899"/>
</linearGradient>
<linearGradient id="paint3_linear_496_81425" x1="13.3121" y1="23.2901" x2="24.131" y2="23.2901" gradientUnits="userSpaceOnUse">
<stop stop-color="#101860"/>
<stop offset="1" stop-color="#002899"/>
</linearGradient>
<linearGradient id="paint4_linear_496_81425" x1="10.2776" y1="18.2935" x2="17.68" y2="18.2935" gradientUnits="userSpaceOnUse">
<stop stop-color="#101860"/>
<stop offset="1" stop-color="#002899"/>
</linearGradient>
</defs>
</svg>
